<?xml version="1.0" encoding="UTF-8" standalone="no"?>
<!-- Created with Inkscape (http://www.inkscape.org/) -->

<svg
   width="111mm"
   height="111mm"
   viewBox="0 0 120 120"
   version="1.1"
   id="svg1"
   xmlns="http://www.w3.org/2000/svg"
   xmlns:svg="http://www.w3.org/2000/svg">
  <defs
     id="defs1" />
  <g id="layer69">
    <rect width="120"
          height="120"
          fill="white"/>
  </g>
  <g
     id="layer1"
     style="display:none"
     transform="translate(-63.239744,-69.316351)">
    <path
       style="fill:none;fill-opacity:1;stroke:#000000;stroke-width:5;stroke-linecap:round;stroke-linejoin:round;stroke-dasharray:none;stroke-opacity:1"
       id="path4"
       d="m 82.178818,147.00755 a 29.97541,29.97541 0 0 1 29.975412,-29.97541 29.97541,29.97541 0 0 1 29.97541,29.97541 29.97541,29.97541 0 0 1 -29.97541,29.97541" />
    <path
       style="fill:none;fill-opacity:1;stroke:#000000;stroke-width:5;stroke-linecap:round;stroke-linejoin:round;stroke-dasharray:none;stroke-opacity:1"
       id="path5"
       d="m 82.030167,176.85865 a 13.256445,14.664391 0 0 1 -11.480418,-7.33219 13.256445,14.664391 0 0 1 0,-14.6644 13.256445,14.664391 0 0 1 11.480418,-7.33219" />
    <path
       style="fill:none;fill-opacity:1;stroke:#000000;stroke-width:4.99999;stroke-linecap:round;stroke-linejoin:round;stroke-dasharray:none;stroke-opacity:1"
       d="m 82.030167,176.85865 30.124063,0.12431 v 0 z"
       id="path6" />
  </g>
  <g
     id="g15"
     style="display:inline"
     transform="translate(-63.239744,-69.316351)">
    <path
       style="display:inline;fill:none;fill-opacity:1;stroke:#000000;stroke-width:5;stroke-linecap:round;stroke-linejoin:round;stroke-dasharray:none;stroke-opacity:1"
       id="path4-2"
       d="M 82.17988,146.75519 A 29.97541,29.97541 0 0 1 94.105,123.07534" />
    <path
       style="fill:none;fill-opacity:1;stroke:#000000;stroke-width:5;stroke-linecap:round;stroke-linejoin:round;stroke-dasharray:none;stroke-opacity:1"
       id="path13"
       d="m 142.0626,149.01113 a 29.97541,29.97541 0 0 1 -29.90837,27.97183" />
    <path
       style="fill:none;fill-opacity:1;stroke:#000000;stroke-width:5;stroke-linecap:round;stroke-linejoin:round;stroke-dasharray:none;stroke-opacity:1"
       id="path14"
       d="m 82.030167,176.85865 a 13.256445,14.664391 0 0 1 -11.480418,-7.33219 13.256445,14.664391 0 0 1 0,-14.6644 13.256445,14.664391 0 0 1 11.480418,-7.33219" />
    <path
       style="fill:none;fill-opacity:1;stroke:#000000;stroke-width:4.99999;stroke-linecap:round;stroke-linejoin:round;stroke-dasharray:none;stroke-opacity:1"
       d="m 82.030167,176.85865 30.124063,0.12431 v 0 z"
       id="path15" />
  </g>
  <g
     id="layer3"
     transform="translate(-63.239744,-69.316351)">
    <path
       style="fill:none;fill-opacity:1;stroke:#000000;stroke-width:4.99999;stroke-linecap:round;stroke-linejoin:round;stroke-dasharray:none;stroke-opacity:1"
       id="path7"
       d="m 91.096932,142.52988 a 7.8873129,7.96562 0 0 1 7.887313,-7.96562 7.8873129,7.96562 0 0 1 7.887315,7.96562" />
    <path
       style="fill:none;fill-opacity:1;stroke:#000000;stroke-width:10;stroke-linecap:round;stroke-linejoin:round;stroke-dasharray:none;stroke-opacity:1"
       d="m 104.37565,142.552 c 0.0686,12.7337 -0.0194,12.64568 -0.0194,12.64568 z"
       id="path8" />
  </g>
  <g
     id="g10"
     transform="translate(-63.239744,-69.316351)">
    <path
       style="fill:none;fill-opacity:1;stroke:#000000;stroke-width:4.99999;stroke-linecap:round;stroke-linejoin:round;stroke-dasharray:none;stroke-opacity:1"
       id="path9"
       d="m 116.76238,141.5898 a 7.8873129,7.96562 0 0 1 7.88732,-7.96562 7.8873129,7.96562 0 0 1 7.88731,7.96562" />
    <path
       style="fill:none;fill-opacity:1;stroke:#000000;stroke-width:10;stroke-linecap:round;stroke-linejoin:round;stroke-dasharray:none;stroke-opacity:1"
       d="m 130.04109,141.61192 c 0.0686,12.7337 -0.0194,12.64568 -0.0194,12.64568 z"
       id="path10" />
  </g>
  <g
     id="layer4"
     transform="translate(-63.239744,-69.316351)">
    <path
       style="fill:none;fill-opacity:1;stroke:#000000;stroke-width:5;stroke-linecap:round;stroke-linejoin:round;stroke-dasharray:none;stroke-opacity:1"
       d="m 82.030167,147.52987 c 0,0 -4.688665,0.2644 -11.805863,-7.00261 -7.486234,-7.64381 -3.371998,-17.59884 -3.232845,-17.47039 l 27.137942,9e-5"
       id="path11" />
  </g>
  <g
     id="layer5"
     transform="translate(-63.239744,-69.316351)">
    <path
       style="fill:none;fill-opacity:1;stroke:#000000;stroke-width:4.99999;stroke-linecap:round;stroke-linejoin:round;stroke-dasharray:none;stroke-opacity:1"
       d="m 142.22318,148.89971 c 0,0 8.4072,-0.94008 14.5233,-9.12203 6.41783,-8.58559 2.96495,-16.62718 2.96495,-16.62718 l -29.53238,-0.0935"
       id="path12" />
    <path
       style="fill:none;fill-opacity:1;stroke:#000000;stroke-width:4.99999;stroke-linecap:round;stroke-linejoin:round;stroke-dasharray:none;stroke-opacity:1"
       d="m 140.27402,139.15574 c 0,0 2.17032,-0.8081 3.02589,-2.31953 1.56404,-2.76298 3.6653,-7.23411 6.40839,-7.80647 3.37683,-0.70459 3.13373,3.90388 3.13373,3.90388"
       id="path16" />
  </g>
  <g
     id="layer6"
     transform="translate(-63.239744,-69.316351)">
    <path
       style="fill:none;fill-opacity:1;stroke:#000000;stroke-width:4.99999;stroke-linecap:round;stroke-linejoin:round;stroke-dasharray:none;stroke-opacity:1"
       d="m 79.154267,156.87052 h 5.688542 l -3.063039,1.76845 z"
       id="path17" />
  </g>
  <g
     id="layer7"
     transform="translate(-63.239744,-69.316351)">
    <path
       style="fill:none;fill-opacity:1;stroke:#000000;stroke-width:4.99999;stroke-linecap:round;stroke-linejoin:round;stroke-dasharray:none;stroke-opacity:1"
       d="m 136.32908,123.07647 c 0,0 -2.48941,-12.88904 -10.17243,-20.71708 -6.0641,-6.178564 -16.88023,-7.969859 -21.77759,-6.315641 -2.79824,0.945181 3.53035,10.900741 3.62152,14.221351 0,0 -5.37521,-3.85441 -12.517654,-4.07624 -5.389279,-0.16739 -12.244876,1.81334 -12.835499,4.75294 -0.329958,1.64225 1.526263,4.06409 11.481974,12.11516"
       id="path18" />
  </g>
  <g
     id="layer8"
     transform="translate(-63.239744,-69.316351)">
    <path
       style="fill:none;fill-opacity:1;stroke:#000000;stroke-width:5;stroke-linecap:round;stroke-linejoin:round;stroke-dasharray:none;stroke-opacity:1"
       d="m 139.31596,108.41286 c 0.0153,0.003 4.0468,-16.877882 10.94142,-19.169812 10.38632,-3.452653 14.41634,8.883725 14.41634,8.883725 0,0 -6.98276,-3.41039 -11.07758,-2.36243 -3.70003,0.94693 -12.91046,11.646387 -14.28018,12.648517 z"
       id="path19" />
  </g>
</svg>
