<?xml version="1.0" encoding="UTF-8" standalone="no"?>
<!-- Created with Inkscape (http://www.inkscape.org/) -->

<svg
   width="2889.1428"
   height="770.22369"
   viewBox="0 0 2889.1428 770.2237"
   version="1.1"
   id="svg1"
   sodipodi:docname="triangles.svg"
   inkscape:version="1.3.2 (091e20e, 2023-11-25, custom)"
   xmlns:inkscape="http://www.inkscape.org/namespaces/inkscape"
   xmlns:sodipodi="http://sodipodi.sourceforge.net/DTD/sodipodi-0.dtd"
   xmlns="http://www.w3.org/2000/svg"
   xmlns:svg="http://www.w3.org/2000/svg">
  <sodipodi:namedview
     id="namedview1"
     pagecolor="#ffffff"
     bordercolor="#000000"
     borderopacity="0.25"
     inkscape:showpageshadow="2"
     inkscape:pageopacity="0.0"
     inkscape:pagecheckerboard="0"
     inkscape:deskcolor="#d1d1d1"
     inkscape:zoom="0.3796875"
     inkscape:cx="1488.0658"
     inkscape:cy="38.1893"
     inkscape:window-width="2560"
     inkscape:window-height="1369"
     inkscape:window-x="1912"
     inkscape:window-y="-8"
     inkscape:window-maximized="1"
     inkscape:current-layer="layer1" />
  <defs
     id="defs1" />
  <g
     id="layer1"
     transform="translate(171.33069,-946.35264)">
    <path
       style="fill:#000000;fill-opacity:1;stroke:#ffffff;stroke-width:4.44094;stroke-linecap:round;stroke-linejoin:round;stroke-opacity:1"
       id="path1"
       d="m 47.407402,1272.0988 37.147829,146.4539 37.147799,146.4539 -145.406737,-41.056 -145.406723,-41.056 108.258905,-105.3979 z" />
    <path
       style="fill:#000000;fill-opacity:1;stroke:#ffffff;stroke-width:4.44094;stroke-linecap:round;stroke-linejoin:round;stroke-opacity:1"
       id="path2"
       d="m 514.89712,1289.2181 -98.17326,126.4746 -98.17328,126.4746 -60.4436,-148.2578 -60.44357,-148.2579 158.61686,21.7832 z" />
    <path
       style="fill:#000000;fill-opacity:1;stroke:#ffffff;stroke-width:4.44094;stroke-linecap:round;stroke-linejoin:round;stroke-opacity:1"
       id="path3"
       d="M 1028.2515,1447.9669 H 739.78329 451.31514 L 595.88477,1196.0494 736.72974,948.57289 880.62827,1194.2865 Z"
       sodipodi:nodetypes="ccccccc" />
    <path
       style="fill:#000000;fill-opacity:1;stroke:#ffffff;stroke-width:4.44094;stroke-linecap:round;stroke-linejoin:round;stroke-opacity:1"
       id="path4"
       d="m 1370.8643,1445.7465 -47.1909,-131.9165 -47.1908,-131.9165 137.8384,25.0898 137.8385,25.0898 -90.6476,106.8267 z" />
    <path
       style="fill:#000000;fill-opacity:1;stroke:#ffffff;stroke-width:4.44094;stroke-linecap:round;stroke-linejoin:round;stroke-opacity:1"
       id="path5"
       d="m 1664.5268,1447.9668 141.6302,-240.5189 141.6302,-240.51885 137.4804,242.91475 137.4803,242.9148 -279.1105,-2.3959 z" />
    <path
       style="fill:#000000;fill-opacity:1;stroke:#ffffff;stroke-width:4.44094;stroke-linecap:round;stroke-linejoin:round;stroke-opacity:1"
       id="path6"
       d="m 2350.6173,1492.0164 -20.512,-222.5607 -20.5119,-222.5607 202.9992,93.5165 202.9992,93.5165 -182.4872,129.0442 z" />
    <path
       style="fill:#000000;fill-opacity:1;stroke:#ffffff;stroke-width:4.44094;stroke-linecap:round;stroke-linejoin:round;stroke-opacity:1"
       id="path7"
       d="m 1370.8642,1445.7465 -225.4789,-80.3398 -225.47892,-80.3399 182.31582,-155.1006 182.3158,-155.10053 43.1631,235.44043 z" />
    <path
       style="fill:#000000;fill-opacity:1;stroke:#ffffff;stroke-width:4.44094;stroke-linecap:round;stroke-linejoin:round;stroke-opacity:1"
       id="path8"
       d="m 356.28024,1322.14 -4.90059,38.3849 -4.90059,38.3849 -30.79202,-23.4365 -30.79201,-23.4365 35.6926,-14.9484 z" />
    <path
       style="fill:#000000;fill-opacity:1;stroke:#ffffff;stroke-width:2.91052;stroke-linecap:round;stroke-linejoin:round;stroke-opacity:1"
       id="path10"
       d="m 1492.6047,1332.6841 186.4825,0.1082 186.4826,0.1082 -93.335,161.4445 -93.3349,161.4445 -93.1476,-161.5527 z" />
    <path
       style="fill:#000000;fill-opacity:1;stroke:#ffffff;stroke-width:4.44094;stroke-linecap:round;stroke-linejoin:round;stroke-opacity:1"
       id="path11"
       d="m 1600.0476,1290.6175 -77.9872,-89.3776 -77.9872,-89.3776 116.3969,-22.8501 116.3968,-22.8501 -38.4096,112.2277 z" />
    <path
       style="fill:#000000;fill-opacity:1;stroke:#ffffff;stroke-width:2.92708;stroke-linecap:round;stroke-linejoin:round;stroke-opacity:1"
       id="path12"
       d="m 2136.2102,1342.2651 150.433,12.9816 150.4329,12.9817 -86.4588,123.788 -86.4589,123.7879 -63.9741,-136.7695 z" />
    <path
       style="fill:#000000;fill-opacity:1;stroke:#ffffff;stroke-width:4.44094;stroke-linecap:round;stroke-linejoin:round;stroke-opacity:1"
       id="path13"
       d="m 724.27983,1288.3146 -10.07496,-72.1917 -10.07495,-72.1917 67.55732,27.3707 67.55731,27.3707 -57.48236,44.821 z" />
    <path
       style="fill:#000000;fill-opacity:1;stroke:#ffffff;stroke-width:4.44094;stroke-linecap:round;stroke-linejoin:round;stroke-opacity:1"
       id="path15"
       d="m 1806.157,1207.4479 106.8894,-25.7294 106.8894,-25.7293 -31.1624,105.4336 -31.1625,105.4336 -75.7269,-79.7043 z" />
    <path
       style="fill:#000000;fill-opacity:1;stroke:#ffffff;stroke-width:4.44094;stroke-linecap:round;stroke-linejoin:round;stroke-opacity:1"
       id="path16"
       d="m 2358.0381,1308.228 18.7223,-75.6061 18.7222,-75.6062 56.1158,54.017 56.1157,54.017 -74.838,21.5892 z" />
    <path
       sodipodi:type="star"
       style="fill:#000000;stroke:#ffffff;stroke-width:4.44094;stroke-linecap:round;stroke-linejoin:round"
       id="path18"
       inkscape:flatsided="false"
       sodipodi:sides="3"
       sodipodi:cx="1393.0295"
       sodipodi:cy="638.78223"
       sodipodi:r1="321.38458"
       sodipodi:r2="160.69225"
       sodipodi:arg1="-2.1996835"
       sodipodi:arg2="-1.1524859"
       inkscape:rounded="0"
       inkscape:randomized="0"
       d="m 1203.9766,378.8841 254.3289,113.06132 254.3289,113.06122 -225.0784,163.72462 -225.0784,163.72468 -29.2504,-276.78593 z"
       transform="matrix(0.47025867,0,0,0.5029109,493.99249,1164.4931)"
       inkscape:transform-center-x="-30.696591"
       inkscape:transform-center-y="8.4930618" />
    <path
       style="fill:#000000;fill-opacity:1;stroke:#ffffff;stroke-width:4.44094;stroke-linecap:round;stroke-linejoin:round;stroke-opacity:1"
       id="path14"
       d="m 1276.4826,1181.9135 -60.2329,122.7406 -60.233,122.7404 -76.1799,-113.5335 -76.18,-113.5335 136.4129,-9.207 z" />
    <path
       sodipodi:type="star"
       style="fill:#000000;stroke:#ffffff;stroke-width:4.44094;stroke-linecap:round;stroke-linejoin:round"
       id="path19"
       inkscape:flatsided="false"
       sodipodi:sides="3"
       sodipodi:cx="1029.8734"
       sodipodi:cy="674.16669"
       sodipodi:r1="174.93111"
       sodipodi:r2="87.46553"
       sodipodi:arg1="-0.80654283"
       sodipodi:arg2="0.24065472"
       inkscape:rounded="0"
       inkscape:randomized="0"
       d="m 1150.9254,547.88407 -36.107,147.12902 -36.107,147.12903 L 969.34742,737.30798 859.98345,632.47386 1005.4544,590.17899 Z"
       transform="translate(-502.827,872.21393)"
       inkscape:transform-center-x="24.41897"
       inkscape:transform-center-y="20.846411" />
    <path
       sodipodi:type="star"
       style="fill:#000000;stroke:#ffffff;stroke-width:4.44094;stroke-linecap:round;stroke-linejoin:round"
       id="path20"
       inkscape:flatsided="false"
       sodipodi:sides="3"
       sodipodi:cx="-1.6007526e-06"
       sodipodi:cy="251.91737"
       sodipodi:r1="59.594845"
       sodipodi:r2="29.797415"
       sodipodi:arg1="0"
       sodipodi:arg2="1.0471976"
       inkscape:rounded="0"
       inkscape:randomized="0"
       d="m 59.594843,251.91737 -44.696138,25.80532 -44.696129,25.80533 8e-6,-51.61065 -8e-6,-51.61065 44.696131,25.80534 z"
       transform="translate(-137.49338,1052.7365)"
       inkscape:transform-center-x="-14.898711" />
    <path
       style="fill:#000000;fill-opacity:1;stroke:#ffffff;stroke-width:4.44094;stroke-linecap:round;stroke-linejoin:round;stroke-opacity:1"
       id="path9"
       d="M 271.27571,1290.535 186.66867,1467.4007 102.06158,1644.2663 -8.8050317,1482.5616 -119.67161,1320.8569 75.802052,1305.6959 Z" />
  </g>
</svg>
