<?xml version="1.0" encoding="UTF-8" standalone="no"?>
<!-- Created with Inkscape (http://www.inkscape.org/) -->

<svg
   width="111"
   height="111"
   viewBox="0 0 111 111"
   version="1.1"
   id="svg1"
   sodipodi:docname="scrunchesvgCurrentColor2.svg"
   inkscape:version="1.3.2 (091e20e, 2023-11-25, custom)"
   xmlns:inkscape="http://www.inkscape.org/namespaces/inkscape"
   xmlns:sodipodi="http://sodipodi.sourceforge.net/DTD/sodipodi-0.dtd"
   xmlns="http://www.w3.org/2000/svg"
   xmlns:svg="http://www.w3.org/2000/svg">
  <sodipodi:namedview
     id="namedview1"
     pagecolor="#ffffff"
     bordercolor="#000000"
     borderopacity="0.25"
     inkscape:showpageshadow="2"
     inkscape:pageopacity="0.0"
     inkscape:pagecheckerboard="0"
     inkscape:deskcolor="#d1d1d1"
     inkscape:zoom="7.5998053"
     inkscape:cx="55.790903"
     inkscape:cy="66.778026"
     inkscape:window-width="2560"
     inkscape:window-height="1369"
     inkscape:window-x="1912"
     inkscape:window-y="-8"
     inkscape:window-maximized="1"
     inkscape:current-layer="svg1" />
  <defs
     id="defs1" />
  <g
     id="layer8"
     transform="translate(-58.641536,-79.279135)">
    <path
       id="path19"
       style="color:#000000;fill:currentColor;stroke-linecap:round;stroke-linejoin:round;-inkscape-stroke:none"
       d="m 153.85638,85.937338 c -0.36245,0.004 -0.72281,0.02096 -1.08008,0.05273 -10.0963,1.35395 -16.18833,12.007882 -16.36133,21.498052 1.2147,7.33357 7.70755,0.1981 10.6875,-2.09375 3.41775,-2.65319 7.46853,-6.161124 11.97657,-3.66016 4.72275,2.27762 10.35487,-2.806175 8.20117,-7.685548 -2.10856,-5.133835 -7.98707,-8.17068 -13.42383,-8.111328 z m 0.12695,4.994141 c 3.5658,-0.05925 9.60303,2.717191 8.10547,6.232422 -4.43609,-1.25996 -9.35304,-2.156607 -13.43945,0.99414 -2.39213,1.706723 -8.58202,7.699089 -5.33008,1.34375 1.83073,-4.0565 5.34336,-7.98412 9.98828,-8.519531 0.2128,-0.02977 0.43806,-0.04683 0.67578,-0.05078 z m -46.625,1.859375 c -3.99649,0.11057 -7.660377,3.165188 -5.77516,7.679456 0.71766,1.64542 2.30032,3.68025 1.35242,5.2187 -0.15025,0.24384 -0.22949,0.19993 -1.92296,-0.46066 -5.733552,-2.0778 -13.836793,-1.71609 -19.158203,2.36524 -4.53635,4.35336 1.197166,9.44862 4.583984,12.28711 0.23172,0.17604 0.513975,0.4311 0.791016,0.67578 -6.745784,2e-5 -13.490546,-2e-5 -20.236328,0 -3.737714,0.67196 -3.819747,7.07586 -3.677735,10.56055 0.531965,6.90949 5.295439,12.53318 11.082031,16.08007 -6.196388,3.84638 -9.654492,12.15439 -7.615234,19.34766 1.489611,6.90446 7.985383,12.77133 15.23471,12.81847 1.039265,0.007 1.786686,0.004 3.087556,0.01 9.024366,0.0409 18.033193,0.0741 27.041013,0.10938 0.33438,0.001 2.07326,0.0377 3.95117,-0.23832 14.33584,-1.49214 26.70614,-14.21015 28.46902,-28.43072 11.23152,-2.75706 20.076,-14.12124 18.3418,-26.13569 -0.39214,-3.54657 -3.34356,-4.04325 -6.27371,-4.03711 l -18.17968,-0.0586 c -2.65869,-11.31179 -9.55214,-21.89099 -20.51954,-26.013673 -3.40299,-1.144308 -6.99717,-1.680226 -10.57617,-1.777343 z m 1.42774,5.279297 c 8.2232,-0.160189 16.37872,4.555729 19.98828,12.048829 1.91547,3.27401 3.18458,6.84235 4.30273,10.44726 l -2.01367,-0.01 c -1.69537,-0.03 -3.22215,0.72385 -3.28859,2.3563 -0.0717,1.76285 1.49013,2.61875 3.41945,2.59096 8.19832,0.026 18.45988,0.1146 26.6582,0.1406 2.06929,9.78854 -6.61499,19.16193 -15.90625,20.77148 -1.42683,0.34497 -1.71486,0.77823 -2.29921,1.85751 -1.27773,2.73109 -1.11786,7.00983 -2.46251,10.09171 -4.24796,9.65888 -14.47375,16.25757 -25.02929,16.11719 -1.02294,0.001 -2.02475,-0.002 -3.07617,-0.0118 -9.01277,-0.0368 -18.024343,-0.0745 -27.037113,-0.11133 -0.698232,-0.0186 -2.191918,-0.1658 -4.070313,-0.89651 -8.861813,-4.00035 -8.911306,-18.64825 0,-22.53711 1.452074,-0.63368 1.976052,-0.43019 3.09375,-0.72656 1.702939,-0.45155 3.021601,-1.51927 3.417969,-3.38868 0.356445,-1.68112 0.48719,-3.47644 0.646484,-4.76953 0.849969,-6.89975 5.290009,-12.76845 10.517578,-17.17578 0.27671,-0.23329 0.40625,-0.33594 0.609375,-0.5664 0.313439,-0.49871 0.41237,-0.98625 0.34961,-1.47461 -0.163441,-0.87664 -0.858076,-1.40557 -1.480434,-1.99219 -2.96985,-3.05126 -7.035456,-5.34419 -9.568359,-8.9043 1.616305,-3.5822 9.086146,-3.56726 13.208984,-2.83398 2.912469,0.47719 10.848989,7.4715 11.695309,0.52148 -0.11677,-3.79893 -4.60862,-8.69772 -3.31836,-11.447263 0.54752,-0.05464 1.09436,-0.08698 1.64258,-0.09766 z M 69.879817,125.55648 h 17.921875 c -4.592133,5.22354 -7.573209,11.93319 -7.945312,18.83984 -4.210845,-1.62169 -7.769332,-5.01014 -10.158203,-8.75195 -1.26355,-2.67307 -2.931476,-9.01951 0.18164,-10.08789 z m 80.369143,0.94336 c -4.95966,0.0718 -7.02596,5.87242 -9.45703,9.40625 -5.20666,1.05824 -2.34906,7.59571 2.04408,5.04273 3.33893,-1.94035 4.59549,-9.43656 7.48326,-8.61304 0.2423,5.78504 6.57565,2.27401 4.58984,-2.42188 -0.50942,-1.65337 -1.86763,-3.07782 -3.62695,-3.34961 -0.35732,-0.0485 -0.70256,-0.0692 -1.0332,-0.0644 z m -33.19097,8.91725 c -2.92648,3.36747 -4.2449,8.28614 -1.39692,9.36986 3.88223,1.47727 2.50787,-7.6663 8.86133,-7.76758 1.68145,-0.0268 2.61885,0.16746 3.35937,1.02148 -2.00269,0.98066 -2.95855,3.17227 -2.9707,5.61328 -0.0226,4.54691 -0.13142,8.32426 0.0781,12.47266 0.67362,4.74725 8.11475,5.47065 9.57422,0.81445 0.14209,-1.05987 0.17199,-2.13843 0.18593,-3.20733 0.0532,-4.07771 0.0637,-8.11808 0.0464,-12.14813 0.0994,-4.94367 -5.34048,-9.65866 -10.27343,-9.56641 -1.21203,0.0227 -4.69622,0.21245 -7.46435,3.39772 z m -25.16463,-0.49648 c -2.94569,2.75142 -5.987423,8.99971 -2.035027,9.81749 3.628567,0.75078 2.164035,-7.67733 9.126953,-7.67383 1.693354,8.5e-4 2.618854,0.16743 3.359374,1.02149 -2.00266,0.98067 -2.938654,3.1885 -2.970702,5.61328 -0.0552,4.17625 -0.13163,8.32426 0.07813,12.47265 0.663402,4.74235 8.752632,5.62895 9.574222,0.81446 0.10387,-0.77539 0.0937,-1.55112 0.11578,-2.33315 0.12828,-4.54558 0.0839,-8.66166 0.11664,-13.02037 0.10083,-4.94433 -5.34692,-9.84838 -10.273439,-9.56836 -1.773699,-0.24427 -5.893845,1.73727 -7.091931,2.85634 z m -7.413361,19.50342 c -0.382727,-0.002 -2.669283,-0.10738 -3.000572,-0.0531 h -2.324219 c -4.557234,0.80942 -1.750102,5.11506 1.027573,6.29688 2.612769,0.84017 4.872287,-0.37257 6.597427,-2.20118 1.944248,-3.25145 -1.522756,-4.03824 -2.300209,-4.04258 z"
       sodipodi:nodetypes="scccccssscccssccsccccccccsssccccccscccccscccccccccssssscscccsccccccccccscccccssscsccscssssscscscscssccccssc" />
  </g>
</svg>
