<?xml version="1.0" encoding="UTF-8" standalone="no"?>
<!-- Created with Inkscape (http://www.inkscape.org/) -->

<svg
   width="111"
   height="111"
   viewBox="0 0 111 111"
   version="1.1"
   id="svg1"
   sodipodi:docname="scrunchesvgCurrentColor2.svg"
   inkscape:version="1.3.2 (091e20e, 2023-11-25, custom)"
   xmlns:inkscape="http://www.inkscape.org/namespaces/inkscape"
   xmlns:sodipodi="http://sodipodi.sourceforge.net/DTD/sodipodi-0.dtd"
   xmlns="http://www.w3.org/2000/svg"
   xmlns:svg="http://www.w3.org/2000/svg">
  <sodipodi:namedview
     id="namedview1"
     pagecolor="#ffffff"
     bordercolor="#000000"
     borderopacity="0.25"
     inkscape:showpageshadow="2"
     inkscape:pageopacity="0.0"
     inkscape:pagecheckerboard="0"
     inkscape:deskcolor="#d1d1d1"
     inkscape:zoom="7.5998053"
     inkscape:cx="55.790903"
     inkscape:cy="66.778026"
     inkscape:window-width="2560"
     inkscape:window-height="1369"
     inkscape:window-x="1912"
     inkscape:window-y="-8"
     inkscape:window-maximized="1"
     inkscape:current-layer="svg1" />
  <defs
     id="defs1" />
  <g
     id="layer8"
     transform="translate(-58.641536,-79.279135)">
    <path
       id="path19"
       style="color:#000000;fill:currentColor;stroke-linecap:round;stroke-linejoin:round;-inkscape-stroke:none"
       d="m 152.77539,85.990234 c -1.24291,0.124511 -2.49914,0.427423 -3.73828,0.945313 -6.4307,2.687657 -9.76024,8.456388 -11.33594,13.224613 -0.78785,2.38411 -1.15901,4.54358 -1.25781,6.18945 -0.0494,0.82294 -0.0581,1.47152 0.0937,2.2207 0.0759,0.37459 0.0474,0.80084 0.76562,1.5625 0.3591,0.38083 1.12317,0.83951 1.94532,0.82813 0.82215,-0.0114 1.40073,-0.39046 1.71875,-0.66992 1.13013,-0.84372 3.34286,-2.75913 6.13476,-4.89649 1.4355,-1.09895 2.93438,-2.18806 4.24414,-3.02734 1.30977,-0.83928 2.52561,-1.40963 2.8711,-1.49805 0.99617,-0.25494 2.69241,0.27766 4.86132,0.86524 1.08446,0.29378 2.31315,0.59204 3.75977,0.37304 1.44662,-0.21899 2.98691,-1.17926 3.92578,-2.60742 1.25902,-1.915149 1.09558,-4.327982 0.22461,-6.166016 -0.87096,-1.838034 -2.34437,-3.373605 -4.1543,-4.617187 -2.71489,-1.865373 -6.32985,-3.100095 -10.05859,-2.726563 z m 0.53125,4.992188 c 2.39192,-0.209498 4.85857,0.593467 6.69531,1.855469 1.2245,0.841334 2.1053,1.873824 2.4668,2.636718 0.3615,0.762895 0.30939,0.983952 0.11523,1.279297 -0.31233,0.475101 -0.27088,0.376063 -0.49609,0.410156 -0.22521,0.03409 -0.84089,-0.0228 -1.70117,-0.255859 -1.72057,-0.466114 -4.31152,-1.675827 -7.41016,-0.882812 -1.50453,0.385046 -2.8275,1.171234 -4.32812,2.132812 -1.50063,0.961578 -3.08511,2.116657 -4.58594,3.265627 -0.89509,0.68524 -1.03971,0.83111 -1.85547,1.48242 0.11655,-0.44565 0.0875,-0.7077 0.24219,-1.17578 1.2946,-3.917596 3.89137,-8.248157 8.51758,-10.181642 0.75449,-0.315332 1.54254,-0.496574 2.33984,-0.566406 z m -44.24609,1.951172 c -2.00578,-0.03977 -3.86416,0.195572 -5.48242,0.742187 -1.11544,0.376768 -2.02884,1.546966 -2.27149,2.494141 -0.24265,0.947175 -0.15115,1.717667 -0.0156,2.470703 0.27104,1.506075 0.86057,3.011055 1.5039,4.574215 0.31721,0.77075 0.6094,1.46244 0.92969,2.21094 -2.28023,-0.85665 -4.974417,-1.63726 -8.164063,-1.73633 -3.033347,-0.0942 -6.301692,0.38758 -9.103516,1.34571 -1.400912,0.47906 -2.686397,1.07041 -3.794922,1.88672 -1.108525,0.8163 -2.143882,1.92988 -2.464843,3.52734 -0.195034,0.97071 0.0018,2.10265 0.455078,3.03711 0.453278,0.93445 1.110777,1.79119 2.037109,2.80078 1.852664,2.01918 4.853106,4.65806 9.867188,8.71289 1.073637,0.86952 2.649017,0.70332 3.517578,-0.37109 0.867735,-1.07385 0.700722,-2.6478 -0.373047,-3.51563 -4.941619,-3.99623 -7.846243,-6.59196 -9.328125,-8.20703 -0.719383,-0.78404 -1.061273,-1.3099 -1.185547,-1.55469 0.0075,0.009 0.01475,-0.0896 0.439453,-0.40234 0.511426,-0.37661 1.386793,-0.82095 2.447266,-1.18359 2.120945,-0.72529 4.976105,-1.1513 7.332031,-1.07813 6.28322,0.19514 11.13672,3.60938 11.13672,3.60938 1.67977,1.20541 4.01346,-0.0329 3.95701,-2.09961 -0.0436,-1.5891 -0.58058,-2.85303 -1.17383,-4.34571 -0.59325,-1.49268 -1.30777,-3.08012 -1.9082,-4.53906 -0.51209,-1.24429 -0.83323,-2.262377 -1.02734,-3.035156 1.89283,-0.33021 4.71509,-0.364128 7.83593,0.412109 3.72174,0.925696 7.55032,2.776697 10.14649,5.421877 6.91117,7.04162 9.50195,19.43945 9.50195,19.43945 0.26188,1.35516 1.57244,2.24169 2.92773,1.98047 1.35608,-0.26185 2.24291,-1.57372 1.98047,-2.92969 0,0 -2.38694,-13.3797 -10.84179,-21.99414 -3.46793,-3.533382 -8.08113,-5.668493 -12.50782,-6.769529 -2.21334,-0.550519 -4.36727,-0.864529 -6.37304,-0.904297 z M 79.154297,154.37109 c -2.464635,0.003 -3.439002,3.19294 -1.396485,4.57227 l 2.625,1.76953 c 0.792208,0.5336 1.819208,0.56922 2.646485,0.0918 l 3.064453,-1.76953 c 2.211285,-1.2801 1.305081,-4.66138 -1.25,-4.66407 z m 72.126953,-27.80664 c -0.6769,-0.12791 -1.3981,-0.12553 -2.08398,0.0176 -2.52079,0.52598 -3.98485,2.36748 -5.18946,4.10547 -1.2046,1.73799 -2.14914,3.6219 -2.88281,4.91797 -0.15091,0.26659 -1.72266,1.20703 -1.72266,1.20703 -1.2938,0.48171 -1.95222,1.92097 -1.4707,3.21484 0.48171,1.29381 1.92096,1.95223 3.21484,1.47071 0,0 2.7679,-0.67342 4.32813,-3.42969 0.83037,-1.46691 1.71977,-3.20179 2.64258,-4.5332 0.90288,-1.30266 1.80843,-1.94148 2.05664,-2.01368 0.15721,0.46295 0.17187,1.28125 0.17187,1.28125 -0.072,1.37846 0.9868,2.55444 2.36524,2.62696 1.37846,0.072 2.55443,-0.98681 2.62695,-2.36524 0,0 0.13576,-1.48525 -0.42969,-3.15039 -0.28272,-0.83257 -0.77481,-1.8269 -1.80273,-2.58398 -0.51396,-0.37854 -1.14732,-0.63772 -1.82422,-0.76563 z m -21.09375,-6.00781 c -1.38072,-0.004 -2.50351,1.11147 -2.50781,2.49219 -0.004,1.38071 1.11147,2.5035 2.49218,2.50781 l 27.67969,0.0879 c 0.56026,2.32044 1.00331,7.1375 -3.10742,12.63672 -5.51329,7.37553 -12.79883,8.13477 -12.79883,8.13477 -1.37202,0.15327 -2.36009,1.38966 -2.20703,2.76171 0.15324,1.37288 1.3909,2.36126 2.76367,2.20704 0,0 9.5272,-1.12102 16.2461,-10.10938 7.12349,-9.5296 3.25976,-19.11133 3.25976,-19.11133 -0.3932,-0.91563 -1.29258,-1.51036 -2.28906,-1.51367 z m -63.195313,0 0.154297,0.0605 c -0.254305,-0.0184 -0.509388,-0.0372 -0.509765,-0.0371 -7.83e-4,1.1e-4 -0.524907,0.12662 -0.699219,0.20703 -0.174312,0.0804 -0.298492,0.15976 -0.398438,0.23047 -0.399781,0.28282 -0.477429,0.43111 -0.5625,0.54297 -0.17014,0.22372 -0.209636,0.3179 -0.261718,0.41601 -0.104164,0.19623 -0.170699,0.35179 -0.248047,0.54297 -0.154696,0.38237 -0.322696,0.86555 -0.490235,1.4668 -0.335076,1.2025 -0.663797,2.85754 -0.726562,4.81054 -0.12553,3.90602 0.904584,9.10741 5.1875,13.48047 3.761222,3.8404 7.002779,5.80598 9.414062,6.79102 1.205642,0.49252 2.201098,0.73875 2.9375,0.85742 0.736403,0.11868 1.382813,0.0996 1.382813,0.0996 1.377791,-0.0787 2.431232,-1.25888 2.353516,-2.63672 -0.07764,-1.37857 -1.258154,-2.43316 -2.636719,-2.35547 0,0 0.06045,0.0159 -0.304688,-0.043 -0.365133,-0.0588 -0.985624,-0.20102 -1.841797,-0.55078 -1.712344,-0.69951 -4.376452,-2.2355 -7.732421,-5.66211 -3.203311,-3.27073 -3.856536,-6.86997 -3.761719,-9.82031 0.04442,-1.38222 0.282419,-2.53942 0.509765,-3.40039 h 25.371094 c 1.380712,0 2.5,-1.11929 2.5,-2.5 0,-1.38071 -1.119288,-2.5 -2.5,-2.5 z m -1.697265,4.33789 c 0.430281,0.36845 0.972928,0.57986 1.539062,0.59961 -0.273853,-0.0199 -0.549174,-0.0392 -0.548828,-0.0391 6.64e-4,1.9e-4 -0.990778,-0.56105 -0.990234,-0.56055 z m 67.089068,13.31988 c -3.30879,-1.88032 -7.42174,0.47778 -7.4707,4.28321 v 0.0351 l -0.0195,12.61133 c -0.002,1.3287 0.52525,2.6035 1.46485,3.54297 l 0.89258,0.70898 1.47851,0.61719 0.93555,0.13281 1.67383,-0.20703 0.50976,-0.18555 c 3e-5,-2e-5 1.15023,-0.36762 2.06446,-1.62695 0.44663,-0.61522 0.65027,-1.18523 0.65039,-1.18555 1.2e-4,-3.1e-4 0.1418,-0.42328 0.17578,-0.55664 0.1359,-0.53343 0.12048,-0.62813 0.13281,-0.75 0.0247,-0.24373 0.0258,-0.33534 0.0312,-0.48046 0.0109,-0.29025 0.0185,-0.69941 0.0254,-1.50782 0.0138,-1.61201 0.0184,-4.79247 -0.0156,-11.13281 -1.1e-4,-0.0189 1e-4,-0.0142 0,-0.0332 -0.029,-1.76924 -0.99087,-3.39141 -2.5293,-4.26563 z m -7.86133,-6.19531 c -5.72055,-1e-5 -10.38867,4.72774 -10.38867,10.46484 0,1.38071 1.11929,2.5 2.5,2.5 1.38071,0 2.5,-1.11929 2.5,-2.5 0,-3.06147 2.39714,-5.46484 5.38867,-5.46484 2.99153,0 5.38672,2.40337 5.38672,5.46484 0,1.38071 1.11929,2.5 2.5,2.5 1.38071,0 2.5,-1.11929 2.5,-2.5 0,-5.73709 -4.66617,-10.46484 -10.38672,-10.46484 z m -17.67696,6.24067 c -3.30953,-1.88071 -7.423199,0.47887 -7.4707,4.28515 v 0.0332 l -0.01953,12.61133 c -0.0018,1.3287 0.525244,2.6035 1.46484,3.54297 l 0.89258,0.70899 1.47852,0.61914 0.93554,0.13281 c 0,0 1.67383,-0.20898 1.67383,-0.20899 l 0.50977,-0.18359 c 3e-5,-2e-5 1.30496,-0.2445 2.06445,-1.62891 0.65039,-1.18554 0.65027,-1.18523 0.65039,-1.18554 1.2e-4,-3.2e-4 0.14376,-0.42328 0.17774,-0.55664 0.1359,-0.53344 0.11853,-0.62814 0.13085,-0.75 0.0247,-0.24374 0.0258,-0.33339 0.0312,-0.47852 0.0109,-0.29025 0.0185,-0.6994 0.0254,-1.50781 0.0138,-1.61173 0.0184,-4.7947 -0.0156,-11.13281 -1.1e-4,-0.02 1.1e-4,-0.0151 0,-0.0352 -0.029,-1.76923 -0.99087,-3.3914 -2.5293,-4.26562 z m -7.861325,-6.19532 c -5.720549,0 -10.386719,4.72775 -10.386719,10.46485 -3e-6,1.38071 1.119287,2.5 2.5,2.5 1.380713,0 2.500003,-1.11929 2.5,-2.5 0,-3.06148 2.395191,-5.46485 5.386719,-5.46485 2.991525,0 5.386715,2.40337 5.386715,5.46485 0,1.38071 1.11929,2.5 2.5,2.5 1.38071,0 2.5,-1.11929 2.5,-2.5 0,-5.7371 -4.66617,-10.46485 -10.386715,-10.46485 z m -16.943359,42.29492 c -1.366944,0.0129 -2.470088,1.1213 -2.476563,2.48829 -0.0065,1.36786 1.087428,2.48701 2.455078,2.51171 l 30.124999,0.12305 c 3.28899,-0.0314 3.30814,-4.94295 0.0195,-5 z m -0.01172,-29.33007 c -5.719657,0 -10.937563,3.39191 -13.695313,8.67578 -2.757752,5.28387 -2.757752,11.69464 0,16.97851 2.75775,5.28387 7.975656,8.67579 13.695313,8.67578 1.380712,0 2.5,-1.11929 2.5,-2.5 0,-1.38071 -1.119288,-2.5 -2.5,-2.5 -3.752475,10e-6 -7.285352,-2.19975 -9.263672,-5.99023 -1.978321,-3.79048 -1.978321,-8.55913 0,-12.34961 1.97832,-3.79047 5.511197,-5.99023 9.263672,-5.99023 1.380712,0 2.5,-1.11929 2.5,-2.5 0,-1.38071 -1.119288,-2.5 -2.5,-2.5 z m 60.201174,1.48828 c -1.37744,-0.0927 -2.56923,0.94875 -2.66211,2.32617 -0.96821,14.4529 -12.92876,25.63867 -27.41406,25.63867 -1.38071,0 -2.5,1.11929 -2.5,2.5 0,1.38071 1.11929,2.5 2.5,2.5 17.06915,0 31.26142,-13.2737 32.40234,-30.30469 0.0915,-1.37669 -0.94957,-2.56725 -2.32617,-2.66015 z m -49.630862,-25.4375 c -8.05831,6.07743 -12.834949,15.56151 -12.919922,25.65429 -0.01192,1.38073 1.09778,2.50968 2.478516,2.52149 1.381489,0.0119 2.510743,-1.09897 2.521484,-2.48047 0.07192,-8.54268 4.109012,-16.5591 10.929688,-21.70312 1.103261,-0.83094 1.323659,-2.3991 0.492187,-3.50196 -0.831543,-1.10262 -2.399602,-1.32213 -3.501953,-0.49023 z"
       sodipodi:nodetypes="csssssccssssssssccsssssssssccssssscsccscssscccscscsccsscsscccssscccccccscsscccssccccssssccccscccsccccccccssssssssccccssscssccccsccccccccccccssscccscccsssssssssccccccccccssccccscccssssssssscsccccsssssssssssccsssccccccccc" />
  </g>
</svg>
